{"title":"Hanna 2011 DVDrip English Klam","uid":6687507,"size":1580287263,"categoryP":"video","categoryS":"movies","magnet":"?xt=urn:btih:035d358c0c97bf435264a2af7bd0d02cb876b440&amp;dn=Hanna+2011+DVDrip+English+Klam&amp;tr=udp%3A%2F%2Ftracker.openbittorrent.com%3A80&amp;tr=udp%3A%2F%2Fopen.demonii.com%3A1337&amp;tr=udp%3A%2F%2Ftracker.coppersurfer.tk%3A6969&amp;tr=udp%3A%2F%2Fexodus.desync.com%3A6969","seeders":0,"leechers":0,"uploader":"Klambake","files":-1,"time":1316459865,"description":"With: Saoirse Ronan, Cate Blanchett en Eric Bana\n\nDe 16-jarige Hanna (Saoirse Ronan) is een unieke tiener. Ze heeft de kracht, de hersens en het uithoudingsvermogen van een soldaat. Dat heeft ze van haar vader (Eric Bana), een voormalig CIA-agent, die haar in Finland opgevoed en getraind heeft als perfecte huurmoordenaar. Als ze door haar vader er op uit gestuurd wordt voor een missie door heel Europa, vindt er een scherpe verandering in haar jonge bestaan plaats. Wanneer ze achterna gezeten wordt door de agenten van een meedogenloze spion (Cate Blanchett) en haar ultieme doelwit nadert, wordt Hanna geconfronteerd met een aantal openbaringen die haar doen twijfelen over haar bestaan en menselijkheid.\n\nA 16-year-old who was raised by her father to be the perfect assassin is dispatched on a mission across Europe, tracked by a ruthless intelligence agent and her operatives. \n\n------------------ Dutch Friends ------------------\nYou can find my Friends at: http://www.Film-Test.nl \n------ They got my dutchs subs ---- and more ------\n\nGeneral:\n\nComplete name                    : Hanna\\Hanna.avi\nFormat                           : AVI\nFormat/Info                      : Audio Video Interleave\nFile size                        : 1.47 GiB\nDuration                         : 1h 50mn\nOverall bit rate                 : 1 901 Kbps\n\nVideo:\n\nFormat                           : MPEG-4 Visual\nFormat profile                   : Simple@L3\nFormat settings, BVOP            : No\nFormat settings, QPel            : No\nFormat settings, GMC             : No warppoints\nFormat settings, Matrix          : Default (H.263)\nCodec ID                         : XVID\nCodec ID/Hint                    : XviD\nDuration                         : 1h 50mn\nBit rate                         : 1 442 Kbps\nWidth                            : 720 pixels\nHeight                           : 304 pixels\nDisplay aspect ratio             : 2.35:1\nFrame rate                       : 23.976 fps\nColor space                      : YUV\nChroma subsampling               : 4:2:0\nBit depth                        : 8 bits\nScan type                        : Progressive\nBits/(Pixel*Frame)               : 0.275\nStream size                      : 1.12 GiB (76%)\nWriting library                  : XviD 1.1.2 (UTC 2006-11-01)\n\nAudio:\n\nFormat                           : AC-3\nFormat/Info                      : Audio Coding 3\nMode extension                   : CM (complete main)\nCodec ID                         : 2000\nDuration                         : 1h 50mn\nBit rate mode                    : Constant\nBit rate                         : 448 Kbps\nChannel(s)                       : 6 channels\nChannel positions                : Front: L C R, Side: L R, LFE\nSampling rate                    : 48.0 KHz\nBit depth                        : 16 bits\nStream size                      : 355 MiB (24%)\nAlignment                        : Aligned on interleaves\nInterleave, duration             : 32 ms (0.77 video frame)\nInterleave, preload duration     : 448 ms\n\n","torrent":{"xt":"urn:btih:035d358c0c97bf435264a2af7bd0d02cb876b440","amp;dn":"Hanna+2011+DVDrip+English+Klam","amp;tr":["udp%3A%2F%2Ftracker.openbittorrent.com%3A80","udp%3A%2F%2Fopen.demonii.com%3A1337","udp%3A%2F%2Ftracker.coppersurfer.tk%3A6969","udp%3A%2F%2Fexodus.desync.com%3A6969"],"infoHash":"035d358c0c97bf435264a2af7bd0d02cb876b440","infoHashBuffer":{"type":"Buffer","data":[3,93,53,140,12,151,191,67,82,100,162,175,123,208,208,44,184,118,180,64]},"announce":[],"urlList":[]}}